<svg width="23" height="31" viewBox="0 0 23 31" fill="none" xmlns="http://www.w3.org/2000/svg">
<path d="M0.801086 2C0.801086 0.895431 1.69652 0 2.80109 0H7.80109C8.90566 0 9.80109 0.895431 9.80109 2V29C9.80109 30.1046 8.90566 31 7.80109 31H2.80109C1.69652 31 0.801086 30.1046 0.801086 29V2Z" fill="white"/>
<path d="M14.8011 2C14.8011 0.895431 15.6965 0 16.8011 0H21.8011C22.9057 0 23.8011 0.895431 23.8011 2V29C23.8011 30.1046 22.9057 31 21.8011 31H16.8011C15.6965 31 14.8011 30.1046 14.8011 29V2Z" fill="white"/>
</svg>
